<?xml version="1.0" encoding="utf-8"?>
<!-- Generator: Adobe Illustrator 26.5.3, SVG Export Plug-In . SVG Version: 6.00 Build 0)  -->
<svg version="1.1" id="Layer_1" xmlns="http://www.w3.org/2000/svg" xmlns:xlink="http://www.w3.org/1999/xlink" x="0px" y="0px"
	 viewBox="0 0 1280 810" style="enable-background:new 0 0 1280 810;" xml:space="preserve">
<style type="text/css">
	.st0{fill:#FF9933;}
</style>
<g transform="translate(0.000000,810.000000) scale(0.100000,-0.100000)">
	<path class="st0" d="M8325,8087c-17-8-36-21-44-30c-7-10-22-17-31-17c-10,0-28-12-40-27c-29-37-24-112,12-181l26-50l-29-28
		c-37-36-52-84-47-150c6-70,45-126,124-177l60-38l-17-97c-31-178-32-217-6-322l24-94l-23-106c-32-144-39-233-24-305
		c6-33,50-175,96-317c46-141,84-270,84-286c0-31-74-256-116-350c-26-58-24-70,19-110l24-23l-77-157c-176-355-228-523-246-787
		c-7-110-39-198-99-275c-77-100-94-146-127-344c-43-266-107-436-203-544c-63-71-75-93-75-134v-38h-125c-144,0-135-6-160,111
		c-14,69-14,75,1,84c91,54,127,123,128,246c0,80-2,90-29,132c-17,25-71,90-121,145c-64,69-96,113-109,148c-10,27-37,96-59,154
		c-40,102-41,107-28,155c7,28,17,80,22,117c8,56,19,81,70,160c54,83,74,127,134,290c20,56,83,154,119,187l26,24l46-42
		c72-66,162-104,261-109c135-7,234,37,339,150c114,123,171,292,162,483c-11,246-124,443-306,533c-71,35-80,37-175,37
		c-92,0-107-3-166-31c-146-70-251-210-300-400l-10-41l-187-7c-104-4-336-13-517-22c-181-8-332-11-336-7c-3,5-12,31-19,58
		c-36,144-147,283-276,346c-67,33-74,34-185,34c-109,0-119-2-183-32c-96-46-192-143-239-243c-46-96-61-164-61-270
		c0-105,15-174,60-268c48-103,134-192,231-240c75-36,78-37,192-37c112,0,117,1,185,35c39,19,72,36,76,38c9,4,49-93,103-248l51-145
		l71-48l72-47l-19-62c-11-34-22-87-26-118c-5-52-2-61,44-150c27-52,88-159,136-238s87-145,87-147s-15,1-32,6c-56,16-255,39-338,39
		c-95,0-287-24-354-44c-66-20-96-50-96-96c0-33,12-51,94-146c51-60,143-163,204-229s112-128,112-137s-28-41-62-72
		c-58-51-67-56-110-56c-45,0-48,2-48,25c0,40-25,90-56,112c-26,19-27,22-15,50c12,29,10,34-28,84c-41,54-41,54-34,122
		c5,59,3,69-12,81c-17,12-20,10-34-18c-14-27-21-31-65-34c-27-2-54,2-59,7c-16,16-44,13-51-5c-5-13-9-14-21-4c-20,16-19,27,5,57
		c11,14,20,37,20,50c0,14,14,42,30,63c32,41,39,66,15,56c-9-3-19,3-25,14c-11,21-40,17-40-6c0-16-39-44-62-44c-14,0-16,6-12,28
		c5,23,1,30-20,40c-16,7-26,20-26,32c0,30-18,15-28-23l-9-32l-42,42c-29,28-41,48-37,59c3,8,6,36,6,60c0,35,3,44,18,44
		c30,0,45,16,37,39c-3,11-12,21-19,21c-6,0-19,13-29,29c-12,21-22,28-37,24c-17-4-20,0-20,23c0,34-34,94-53,94c-7,0-23-17-35-39
		c-12-21-34-46-48-56c-23-15-27-15-43-1c-25,22-27,21-45-24c-20-50-14-63,48-109c43-33,46-37,40-70c-4-20-9-39-11-44
		c-8-14-82-47-106-47c-12,0-28-5-33-10c-7-7-16-4-29,10c-10,11-24,20-32,20s-24,11-36,24s-31,25-42,27c-12,3-21,14-23,27
		s-14,27-28,32c-13,5-24,15-24,22c0,23-16,39-33,32c-23-8-21-20,8-58c19-26,25-45,25-87c0-58,6-72,32-82c25-9,39-91,22-132
		c-13-31-12-34,6-40c24-8,27-50,4-59c-8-3-24-1-35,4c-20,11-39,6-39-10c0-5,9-12,20-15s20-11,20-16c0-8-49-43-72-51c-3-2-8-9-10-17
		c-4-17,46-30,140-35c56-3,62-2,56,13c-4,9-9,30-11,47c-4,25,0,32,22,42c21,10,25,17,20,33c-6,19-4,21,21,16c15-3,36,0,46,6
		c12,8,21,8,28,1c17-17-5-62-35-70c-19-5-23-10-16-17c17-17,13-45-9-57c-25-13-25-24,0-48c20-18,20-18,0-40c-12-12-29-22-38-22
		c-10,0-27-7-38-15c-28-21-34-19-34,13c0,42-27,74-58,70c-22-2-27-8-27-30c0-31-3-33-45-24c-26,5-30,10-30,40s-4,36-32,45
		c-18,5-52,12-74,16c-38,6-42,4-48-19c-3-14-10-26-15-26c-16,0-61,41-61,56c0,23-19,16-32-11c-6-14-19-25-28-25c-36,0-53,46-26,69
		c8,6,17,32,21,57c5,39,3,47-17,64c-47,40-73,17-85-75c-10-74-38-84-90-33c-22,21-33,27-34,17c-1-7-2-23-3-34c-1-26-42-32-67-9
		c-14,13-16,20-8,31c9,10,7,13-10,13c-16,0-21-6-21-24c0-21-5-25-37-28c-33-3-38-7-41-30c-2-15,4-38,12-50c21-30,20-35-11-42
		c-33-9-84-62-77-81c3-8,14-17,25-20c30-10,23-22-37-62c-47-31-58-35-75-25c-10,7-50,12-88,12c-39,0-73,4-76,10c-11,18-90,12-109-9
		c-14-16-22-17-62-8c-32,8-51,8-62,0c-11-6-72-9-157-7c-133,3-210-5-282-27c-18-6-39-7-45-2c-7,4-28,13-47,20c-32,11-37,10-66-16
		l-32-28l-624-7c-1447-16-2132-26-2137-31c-3-3,44-5,104-5h109l13-30c8-16,11-34,7-40c-9-15,25-67,51-79c25-11,23-41-2-41
		c-8,0-23-9-34-20c-17-17-33-20-115-20c-56,0-95-4-95-10s35-9,87-7c86,2,88,1,89-21c1-13,6-28,13-35c19-19,13-23-36-23
		c-31,1-48-4-51-13c-4-12,6-13,54-8c59,7,888,17,2824,37c569,6,1467,15,1995,20s1415,14,1970,20c556,6,1426,15,1935,20
		s1434,14,2055,20c1349,12,1677,19,1669,32c-4,5-22,8-40,6c-35-4-38,0-28,40c5,17,14,22,39,22c40,0,65,9,65,22c0,6-8,7-17,3
		c-10-4-29-9-42-11l-23-5l21,27c25,32,27,71,6,102c-11,15-13,27-7,39c5,10,7,23,5,29c-2,7,15,16,40,23c47,11,76,36,61,51
		c-5,5-273,5-634,0c-344-5-700-9-791-10h-167l-12,30c-7,16-39,60-71,97c-39,43-56,70-50,76c7,7,40,2,95-13c138-37,234-16,306,66
		c47,54,63,99,63,179c0,84-11,121-74,247c-86,170-101,229-110,423c-5,125-13,190-29,244c-47,164-137,318-257,437
		c-67,68-72,75-63,101c5,15,14,47,20,70l11,42l42-29c122-85,257-52,257,63c0,41-15,68-52,96c-15,11-17,9-15-16c2-24-1-28-23-25
		c-33,3-67,42-81,95c-33,123-71,177-126,177c-43,0-107-22-133-46l-25-23l-70,35c-62,31-76,34-120,28c-69-9-121-29-169-64
		c-23-17-63-45-91-63c-27-17-57-45-66-62c-17-29-16-33,20-151c21-66,52-147,69-179c18-32,31-59,29-60c-1-1-27-7-57-13
		s-107-25-170-43c-124-33-168-36-365-24c-108,6-415-7-501-22l-31-5l-52,187c-29,102-63,218-77,257c-34,102-35,102,32,94
		c80-9,107,10,310,216c191,194,217,226,233,282c12,46,3,68-56,136c-22,25-94,115-160,200c-125,162-238,278-289,297
		c-16,6-45,14-65,17c-39,7-119,54-119,71c0,6,13,24,29,39c27,26,30,36,33,105c2,42,12,96,23,122c12,30,16,55,11,73
		c-9,38-169,196-228,226c-44,23-51,24-103,13c-30-7-68-21-84-32c-31-22-80-117-113-218l-21-64l28-58c22-48,26-66,20-97
		c-18-98-51-101-91-7c-26,61-29,78-28,173c0,58,4,130,8,160c6,44,0,90-28,230c-20,96-36,178-36,182c0,3,20,18,45,33
		c114,66,139,223,49,313l-35,35l16,62c8,34,15,71,15,83c0,41-28,92-57,104c-15,6-38,21-51,32C8483,8100,8370,8107,8325,8087z
		 M8541,7944c7-20,5-41-6-81c-14-48-18-52-35-43c-15,8-20,21-20,49C8480,7953,8519,8001,8541,7944z M8330,7862c7-27,6-38-3-44
		c-6-4-15-4-18,0c-12,13-29,75-29,101l1,26l19-23C8311,7909,8324,7882,8330,7862z M9303,6074c40-36,103-89,140-117s79-68,92-91
		l24-40l-48-52c-37-40-115-149-196-271c-1-2-42,13-91,33l-89,36l-32,121l-31,122l33,86c44,115,108,239,122,239
		C9230,6140,9264,6110,9303,6074z M7304,5433c4-38,12-87,18-110l10-42l-80-98c-44-54-96-113-116-132c-19-19-56-71-81-115
		c-25-45-64-102-86-129l-41-47l-44,42c-24,24-44,47-44,52s22,30,49,57c62,60,74,98,75,224c1,150-32,201-160,247
		c-97,34-180,30-295-16l-96-39l-20-57c-15-40-18-61-11-74c6-11,6-22,0-29c-5-7-12-41-15-77c-11-124-13-124-94-6l-71,104l25,64
		c14,35,31,93,37,131l10,67l41,1c22,0,216,11,430,23c215,13,427,24,471,25l81,1L7304,5433z M8804,4975c14-15,35-68,55-137
		c33-118,138-345,208-453c22-33,78-98,125-145l85-85l12-86c18-138,36-181,126-314l84-123l-62-10c-148-25-145-25-235,2
		c-161,47-297,79-333,79c-19-1-57-11-85-24c-41-20-49-29-52-55c-3-35,29-69,102-106c38-19,64-37,201-142c49-38,50-38,125-34
		c51,3,92,12,121,26c55,27,83,27,226,5c130-21,124-9,65-136c-29-63-34-82-25-97c11-17-8-18-455-24c-257-3-615-7-796-8l-329-3l-18,50
		c-10,28-18,77-18,110c-1,56,3,65,71,180c39,66,88,145,108,175c53,79,85,144,110,230c12,41,30,86,40,100s31,53,48,87
		c16,34,39,74,50,90c33,47,108,203,138,288c16,44,71,166,122,270c82,167,110,227,135,298C8762,5007,8777,5004,8804,4975z M9530,4588
		c43-8,151-12,314-10c211,1,260-1,330-17c44-11,128-26,186-35c170-26,157-20,164-75c11-82,43-132,106-164c97-49,162-133,210-273
		c18-52,18-55,2-49c-9,4-157,9-327,12c-298,6-312,5-357-15c-78-34-100-112-47-168l21-23l-50-25c-39-20-81-29-179-40
		c-70-8-131-11-134-8c-3,4-18,46-33,94c-41,134-100,272-146,339c-112,164-146,248-167,412l-9,68l25-5C9453,4603,9494,4595,9530,4588
		z M10421,3430c139-30,143-31,230-93c49-34,89-65,89-68s-23-9-52-12c-70-9-138-45-167-90l-24-37h-203h-202l-51,56
		c-48,53-51,59-51,110c0,52-2,56-37,77l-37,21l29,7c17,4,68,18,115,32C10174,3468,10247,3467,10421,3430z M6485,3381
		c50-11,116-23,147-26c42-5,59-12,63-25c13-41,69-102,119-131c30-16,74-48,98-69l43-39l-167-1h-167l-23,33c-12,17-60,75-106,127
		c-106,121-128,150-110,150C6390,3400,6436,3391,6485,3381z"/>
	<path class="st0" d="M6066,6711c-3-4,12-15,34-24c26-10,40-22,40-34c0-20,59-128,66-120c2,2-2,19-10,38c-7,19-17,57-21,84
		c-4,28-12,53-18,57C6140,6723,6072,6722,6066,6711z"/>
	<path class="st0" d="M6254,6459c-8-13,44-61,57-53c10,6,5,19-19,47C6275,6473,6264,6475,6254,6459z"/>
	<path class="st0" d="M2768,4526c-21-16-24-84-5-108c16-22,87-35,87-17c0,7,7,20,16,30c11,12,13,23,6,36c-5,10-7,23-5,30
		c5,15-36,43-62,43C2794,4540,2777,4533,2768,4526z"/>
	<path class="st0" d="M5055,4425c-3-8-7-22-10-30c-6-22-66-55-97-55c-35,0-36-17-3-30c14-5,25-14,25-20c0-5,18-22,41-37
		c39-25,41-29,36-66c-5-35-3-39,28-54c33-16,33-16,73,23c23,22,45,50,50,63c14,39-6,100-39,120c-30,18-62,55-72,84
		C5079,4444,5061,4445,5055,4425z"/>
	<path class="st0" d="M5670,4240c0-23,26-38,41-23c14,14,0,43-22,43C5677,4260,5670,4253,5670,4240z"/>
	<path class="st0" d="M2877,4243c-9-9-9-55,1-70c4-6,20-17,36-23c34-13,76,9,76,40C2990,4227,2902,4269,2877,4243z"/>
	<path class="st0" d="M3809,4201c-24-25-29-38-29-79c0-68,22-88,72-68c35,15,78,71,78,102c0,8-10,28-22,44
		C3880,4238,3847,4239,3809,4201z"/>
	<path class="st0" d="M5444,4210c-11-4-33-23-48-40c-21-25-26-41-24-69c3-34,5-36,44-39c35-3,42,0,47,18c5,21,7,21,37,5
		c35-18,60-8,60,25c0,9,12,22,26,29c35,16,25,36-19,36c-27,0-41,6-52,23C5498,4221,5479,4224,5444,4210z"/>
	<path class="st0" d="M4010,4202c0-5-16-30-37-56c-29-37-36-55-35-86c2-39,1-40-32-40c-46,0-62-20-44-57c7-16,23-29,36-31
		c15-2,22-10,22-25c1-28,33-67,55-67c9,0,29,13,43,28c24,25,31,27,60,20c27-7,32-13,32-38c0-30,0-30,43-23c47,7,62,21,77,73
		c5,19,19,49,30,65c27,41,25,61-7,81c-16,9-47,30-70,45c-23,16-44,29-48,29s-26,20-49,45C4048,4205,4010,4224,4010,4202z"/>
	<path class="st0" d="M4154,4189c-3-6,3-20,14-32c19-19,22-19,28-4C4207,4182,4170,4214,4154,4189z"/>
	<path class="st0" d="M3252,4085c-49-35-70-125-33-144c31-17,89-1,117,31c27,33,26,54-5,98C3309,4101,3282,4106,3252,4085z"/>
	<path class="st0" d="M4383,3940c4-17,16-44,27-60c11-15,18-35,14-43c-3-9,3-16,15-20c13-3,21-13,21-27c0-30,26-77,72-132
		c32-39,36-48,21-48c-10-1,1-11,27-24c25-13,60-44,79-69c38-52,81-69,81-32c0,12,7,28,15,35s15,21,15,31c0,11,5,28,11,38
		c10,14,7,29-15,74c-14,31-26,63-26,71c0,28-40,19-51-11c-15-42-35-53-70-41c-16,5-29,14-29,20c0,5-23,33-51,63
		c-49,52-77,92-100,145c-22,49-26,55-44,59C4380,3971,4378,3967,4383,3940z"/>
	<path class="st0" d="M5415,3919c-41-36-44-55-11-70c54-25,120,28,97,77C5487,3959,5458,3956,5415,3919z"/>
	<path class="st0" d="M5031,3912c-15-27,9-66,42-70c35-4,43,17,22,57C5077,3934,5046,3940,5031,3912z"/>
	<path class="st0" d="M4937,3873c-22-6-17-27,6-31c12-2,17,3,17,17c0,12-1,20-2,20C4956,3878,4947,3876,4937,3873z"/>
	<path class="st0" d="M4987,3834c-14-15-6-34,14-34c14,0,19,5,17,17C5015,3835,4998,3844,4987,3834z"/>
	<path class="st0" d="M5535,3799c-4-11-4-23-1-26c8-9,36,17,36,33C5570,3828,5542,3822,5535,3799z"/>
	<path class="st0" d="M3568,3792c-33-3-38-7-38-28c0-32,42-54,71-36c25,16,36-6,19-38c-12-23-7-50,10-50c34,0,69,135,38,144
		C3640,3793,3603,3796,3568,3792z"/>
	<path class="st0" d="M3307,3723c-25-13-27-19-22-46c9-39,42-77,68-77c34,0,77,32,77,58c0,28-51,82-77,81
		C3343,3738,3322,3731,3307,3723z"/>
	<path class="st0" d="M3548,3586c-10-7-18-24-18-38c0-34,27-55,73-56c25-1,49-10,70-27c18-15,46-37,62-51c17-13,39-31,50-39
		c19-14,18-14-17-15c-47,0-48-12-3-39c24-14,35-28,35-43c0-16,10-28,32-38c43-20,45-33,9-71s-32-55,9-34c36,19,71,66,52,73
		c-32,10,2,55,51,67l28,7l-58,62c-60,63-96,93-148,122c-16,9-52,41-80,70c-36,39-58,54-77,54c-15,0-32,2-40,5
		C3571,3597,3557,3593,3548,3586z"/>
	<path class="st0" d="M3832,3504c2-9,13-20,26-25c19-7,22-5,22,16c0,20-5,25-26,25C3836,3520,3829,3515,3832,3504z"/>
	<path class="st0" d="M3982,3485c-13-7-29-18-35-24s-19-11-29-11c-26,0-22-20,13-63c36-44,63-50,53-12c-8,31,8,52,46,60
		c39,9,56,30,40,50C4055,3503,4014,3503,3982,3485z"/>
	<path class="st0" d="M3213,3340c-23-25-43-47-43-50s15-23,34-44c30-37,37-40,79-38c41,3,46,0,49-20c5-36,63-51,119-32
		c50,18,61,30,54,61c-3,12-1,33,4,47c14,35-7,49-66,44c-42-3-48-1-51,18c-2,13-18,27-45,39C3280,3395,3261,3391,3213,3340z"/>
	<path class="st0" d="M5921,3276c-9-10-7-21,6-45c20-34,52-41,74-15c11,14,9,20-19,45C5946,3294,5937,3296,5921,3276z"/>
	<path class="st0" d="M3697,3228c-15-12-15-15,1-34c24-28,62-16,62,21c0,19-5,25-23,25C3724,3240,3706,3234,3697,3228z"/>
	<path class="st0" d="M3082,3203c-18-4-23-10-20-31c2-22,9-27,33-30c38-3,54,7,57,38c2,20-2,25-22,26C3116,3207,3095,3206,3082,3203
		z"/>
	<path class="st0" d="M12525,2710c-16-5-469-13-1005-19c-1109-13-2384-28-3399-40c-382-5-704-5-715,0c-12,4-61,13-109,19
		s-99,15-113,20c-17,7-32,6-46-1c-12-6-44-11-72-12c-35,0-57-6-71-18c-25-22-73-23-1940-44c-1304-15-2307-27-3825-45
		c-448-6-895-11-993-11c-143-2-180-5-184-16c-9-22,0-24,58-13c37,7,55,7,57,0c2-5,24-10,48-10c44,0,44,0,30-23c-22-33-9-73,30-96
		c23-14,34-28,34-43c0-13,3-40,7-61l6-38l-157,3c-151,3-195-4-119-18c20-4,327-4,682,0c355,3,1123,11,1706,16s1266,12,1517,16
		c444,6,458,5,458-13c0-10,23-41,50-68c49-48,63-82,38-90c-10-3-2469-23-3583-29c-248-1-379,8-437,29c-31,12-47,12-109,1
		c-40-8-86-12-104-9c-21,3-41-1-58-12c-19-12-49-17-116-17c-50,0-91-4-91-9c0-10,55-12,235-9c128,2,187-12,85-20c-57-4-65-8-68-26
		c-2-17,7-26,45-42l48-22h-95c-52,0-114,0-137,0c-24,0-43-3-43-9c0-15,44-21,80-11c18,5,36,8,40,5c3-2,42-5,84-6c65-3,81,0,91,14
		c11,16,13,16,19,2c5-14,146-16,1478-14c810,2,1480,2,1488,2c8-1,80,0,160,1c734,14,1152,17,1163,9c22-17,103-35,178-39
		c41-2,97-5,124-7c28-1,73-4,102-5c39-1,59-8,80-27l28-24l-40-1c-122-2-4069-20-4541-21c-308,0-566-4-573-9c-21-13,35-17,209-14
		c686,8,2474,6,2535-3c57-9,158-15,255-14c93,1,221-8,245-18c39-16,69-7,84,25l12,27l15-21c12-18,25-22,70-22c51,0,55-2,49-20
		c-5-17-2-20,20-20c14,0,35,5,46,10c21,12,55-1,75-28c7-10,19-13,37-8c17,4,27,2,27-5c0-6-9-13-20-16c-16-4-19-11-14-27
		c10-33,23-36,114-30l85,6l60,64l60,63l84,10c74,10,87,9,102-5c11-10,25-14,36-10c12,5,27-5,52-34c32-35,47-43,130-65
		c52-13,119-27,150-31l56-6l70,66c39,37,81,69,95,72s33,9,42,15c30,15,51,10,74-19c22-27,23-27,38-7c13,17,18,18,36,7s27-9,64,13
		c39,23,53,25,157,26c63,0,141-6,173-13c53-12,62-18,81-52c12-22,34-48,49-58c23-17,26-25,20-54c-10-53,2-84,31-84c18,0,25,5,25,19
		c0,29,45,52,108,55c70,3,91-5,121-50c40-58,48-46,56,84c4,64,11,123,15,131s21,16,36,18c16,2,39,4,50,6c12,1,31,10,41,20
		c18,15,47,17,303,17c270,0,284-1,317-21c45-28,231-55,275-40c45,16,75,13,106-8c15-11,48-22,73-26c25-3,61-17,80-31s58-39,86-55
		l53-30l25,19c21,17,30,18,55,9c26-10,34-8,62,13c19,14,44,23,60,22c20-2,32,5,44,23c9,14,25,25,36,25s22,9,25,20s11,20,19,20
		c7,0,19,9,27,21c21,29,81,24,85-8c3-19,7-21,62-16l59,6l18-39c19-40,34-45,81-30c19,6,24,4,29-13c3-12,6-21,7-21s19,9,41,20
		c49,25,65,25,65,1c0-32,16-33,75-4c52,25,58,26,82,13c25-15,53-75,53-116c0-26,8-34,26-27c9,3,14,21,14,53c0,27,3,55,6,64
		c8,21,58,21,105-2c33-15,39-22,43-57c24-206,39-258,112-383c38-64,40-44,4,29c-42,81-80,231-87,342c-6,85-2,96,25,78
		c8-5,28-1,50,10c51,27,69,24,146-21c37-22,77-40,87-40c12,0,28,14,40,35c28,47,46,55,123,55h66v-40c0-45,21-104,48-133
		c26-29,106-67,167-79c47-9,55-14,60-38c11-51,62-118,107-142c61-32,159-32,210,0c58,36,90,114,96,235l5,97h52c107,0,181-46,252-157
		c105-164,137-368,152-953c7-307,9-328,31-378c67-154,234-163,306-17c26,54,26,55,25,282c-1,125-6,372-11,548s-10,353-10,393v72h38
		h39l7-240c7-264,14-300,68-345c57-48,150-24,193,49c30,52,31,78,21,496l-8,325l73,29c57,23,88,44,138,92l65,63l737,3
		c526,2,741,6,749,14s-31,13-147,18c-87,4-174,7-195,6c-30,0-35,3-32,17c5,16-2,18-73,16c-43-2-130-4-194-5c-96-3-121-6-137-21
		s-34-17-108-14c-61,2-82,6-66,11c50,19,5,66-63,66c-44,0-85-30-85-63c0-13-9-17-33-17c-19,0-37,3-41,7c-11,11-160,32-229,33
		c-56,0-58,1-52,23c4,12,10,25,14,29c3,3,339,9,746,13s742,8,744,11c2,2,13,4,23,4c11,0,16,5,13,10c-3,6-24,10-45,10
		c-48,0-93,16-85,31c4,6,10,8,13,5c9-9,42,25,42,44c0,9-6,22-12,28c-10,10-10,15,2,22c8,5,23,10,33,10c27,0,20,19-10,27
		c-36,8-154,8-263-1c-153-13-362-12-444,2c-43,7-88,12-100,11c-11-2-34,1-51,4c-120,28-339,36-362,14c-3-4-12-2-19,4c-8,7-19,7-31,1
		c-24-12-152,2-250,28c-107,28-235,26-409-5c-191-35-351-49-386-34c-21,8-32,8-41,0c-18-14-143-2-158,15c-8,10-35,14-85,14
		c-43,0-76,5-80,11c-7,13-51,9-189-16c-49-9-116-20-149-26c-32-5-149-11-260-12c-111-2-208-7-215-11c-8-5-68-12-134-17
		c-91-5-131-4-165,7c-26,7-56,11-68,8c-14-4-23,0-28,11c-6,16-49,19-71,4c-23-15-67-19-88-7c-12,6-49,11-82,9c-44-1-73,4-105,18
		c-56,25-141,27-247,5c-86-17-157-12-186,14c-16,14-22,14-50,3c-47-20-96-14-142,17l-40,27l275,5c151,3,505,6,785,5
		c466,0,518-2,598-19l87-20l108,27l107,27l1390,11c793,6,1400,15,1413,20s70,9,128,9c68,0,103,4,99,10s-38,8-91,4c-59-5-84-4-84,4
		c0,7,12,14,28,18c15,3,33,7,40,10c17,5,15,59-3,74c-20,16-19,36,1,44c23,9,11,85-16,107c-15,13-17,18-6,22c8,3,23,3,33,1
		c26-7,50,21,34,40C12698,2719,12576,2723,12525,2710z M6689,2286c20-24-60-61-194-90c-81-18-131-34-157-52l-37-26l-363-2
		c-293-1-371,2-403,13c-22,8-58,15-80,16c-42,2-115,31-115,46c0,14,87,10,152-7c54-14,67-14,134,0c52,11,81,13,100,6
		c14-6,57-11,94-12c62-2,71,0,92,23c13,14,45,31,71,38c41,12,52,11,94-5c77-29,165-24,244,14c36,18,83,32,105,33c21,1,50,5,64,9
		C6535,2305,6676,2302,6689,2286z"/>
	<path class="st0" d="M8987,2288c-76-20-56-68,28-68c55,0,80,15,70,42c-5,12-50,41-58,37C9026,2298,9008,2293,8987,2288z"/>
	<path class="st0" d="M8827,2263c-15-14-6-33,17-33c25,0,51,22,39,33C8875,2272,8835,2272,8827,2263z"/>
	<path class="st0" d="M5938,1740c-10-6-18-15-18-20c0-21,44-48,87-53c26-3,52-12,58-21c10-13,32-16,111-16c87,0,105,3,146,25
		c26,14,58,25,72,25c61,0,76,32,23,49c-18,6-66,11-107,10s-138,2-215,5C6001,1749,5949,1747,5938,1740z"/>
	<path class="st0" d="M6540,1740c-17-11-5-27,25-32c14-2,20,3,20,17C6585,1747,6563,1755,6540,1740z"/>
	<path class="st0" d="M4876,1701c-9-14,4-41,19-41c18,0,26,25,12,39C4894,1712,4883,1713,4876,1701z"/>
	<path class="st0" d="M4946,1681c-3-5,1-14,10-22c13-10,19-9,37,9l21,22h-31C4965,1690,4949,1686,4946,1681z"/>
	<path class="st0" d="M5115,1642c-14-20-25-46-25-58c0-29,31-54,66-54c16,0,38-7,48-15c29-22,52-18,75,11c22,28,28,78,11,89
		c-6,4-8,10-5,15c9,14-65,47-107,48C5145,1679,5137,1675,5115,1642z"/>
	<path class="st0" d="M7090,1639c0-7-10-9-26-5c-18,5-25,3-22-6c6-17,94-52,114-44c15,6,13,11-12,36C7114,1650,7090,1659,7090,1639z
		"/>
	<path class="st0" d="M6440,1618c-24-9-25-10-5-24c17-12,21-12,34,1C6490,1616,6472,1631,6440,1618z"/>
	<path class="st0" d="M7300,1579c-14-4-37-11-52-14c-38-7-40-51-3-65c14-5,25-14,25-20c0-15,27-12,33,4c3,8,14,12,24,10
		c14-4,23,2,31,21c16,35,15,45-5,61C7333,1591,7334,1591,7300,1579z"/>
	<path class="st0" d="M7812,1525c-7-25-12-62-12-83l1-37l18,50c10,28,23,61,30,73s9,27,6,32C7841,1582,7823,1567,7812,1525z"/>
	<path class="st0" d="M8101,1541c-26-20-21-41,8-41c24,0,45,25,37,45C8139,1564,8130,1564,8101,1541z"/>
	<path class="st0" d="M7130,1500c0-15,5-20,18-18c9,2,17,10,17,18s-8,16-17,18C7135,1520,7130,1515,7130,1500z"/>
	<path class="st0" d="M4778,1401c3-20,9-42,14-48c16-19,72-16,91,5c38,41,7,80-63,79h-46L4778,1401z"/>
	<path class="st0" d="M8280,1430c-11-7-12-12-3-21c15-15,43-5,43,16C8320,1442,8302,1444,8280,1430z"/>
	<path class="st0" d="M5242,1338c-16-16-15-35,3-42c20-7,45,3,45,18c0,13-20,36-30,36C5257,1350,5249,1345,5242,1338z"/>
	<path class="st0" d="M5073,1139c-51-32-38-69,24-69c27,0,37,6,53,33c11,17,18,37,17,42C5161,1163,5106,1159,5073,1139z"/>
	<path class="st0" d="M4682,1088c-20-20-14-28,19-28c24,0,30,4,27,17C4724,1099,4699,1105,4682,1088z"/>
</g>
</svg>
